Ouverte.ufo
<glyph name="parenleft" format="1">
  <advance width="495"/>
  <unicode hex="0028"/>
  <outline>
    <contour>
      <point x="399" y="-18" type="line"/>
      <point x="367" y="-18" type="line" smooth="yes"/>
      <point x="253" y="-18"/>
      <point x="153" y="216"/>
      <point x="153" y="358" type="curve" smooth="yes"/>
      <point x="153" y="502"/>
      <point x="241" y="799"/>
      <point x="392" y="800" type="curve"/>
      <point x="344" y="873" type="line"/>
      <point x="196.106" y="869.707"/>
      <point x="62" y="600"/>
      <point x="62" y="358" type="curve" smooth="yes"/>
      <point x="62" y="144"/>
      <point x="195" y="-106"/>
      <point x="329" y="-106" type="curve" smooth="yes"/>
      <point x="399" y="-106" type="line"/>
    </contour>
  </outline>
</glyph>
<glyph name="parenright" format="1">
  <advance width="509"/>
  <unicode hex="0029"/>
  <outline>
    <contour>
      <point x="68.5" y="-18" type="line"/>
      <point x="100.5" y="-18" type="line" smooth="yes"/>
      <point x="214.5" y="-18"/>
      <point x="314.5" y="216"/>
      <point x="314.5" y="358" type="curve" smooth="yes"/>
      <point x="314.5" y="502"/>
      <point x="226.5" y="799"/>
      <point x="75.5" y="800" type="curve"/>
      <point x="123.5" y="873" type="line"/>
      <point x="271.394" y="869.707"/>
      <point x="405.5" y="600"/>
      <point x="405.5" y="358" type="curve" smooth="yes"/>
      <point x="405.5" y="144"/>
      <point x="272.5" y="-106"/>
      <point x="138.5" y="-106" type="curve" smooth="yes"/>
      <point x="68.5" y="-106" type="line"/>
    </contour>
  </outline>
</glyph>
<glyph name="comma" format="1">
  <advance width="206"/>
  <unicode hex="002C"/>
  <outline>
    <contour>
      <point x="80" y="-60" type="curve"/>
      <point x="10" y="-60" type="line"/>
      <point x="26" y="-20"/>
      <point x="22" y="12"/>
      <point x="22" y="48" type="curve" smooth="yes"/>
      <point x="22" y="85"/>
      <point x="43" y="108"/>
      <point x="80" y="110" type="curve" smooth="yes"/>
      <point x="110.022" y="111.623"/>
      <point x="136" y="84"/>
      <point x="136" y="54" type="curve" smooth="yes"/>
      <point x="136" y="20"/>
      <point x="128" y="-16"/>
    </contour>
  </outline>
</glyph>
<glyph name="period" format="1">
  <advance width="311"/>
  <unicode hex="002E"/>
  <outline>
    <contour>
      <point x="88" y="98" type="curve" smooth="yes"/>
      <point x="51" y="96"/>
      <point x="30" y="73"/>
      <point x="30" y="36" type="curve" smooth="yes"/>
      <point x="30" y="0"/>
      <point x="55.0098" y="-24.1758"/>
      <point x="92" y="-22" type="curve" smooth="yes"/>
      <point x="126" y="-20"/>
      <point x="144" y="8"/>
      <point x="144" y="42" type="curve" smooth="yes"/>
      <point x="144" y="72"/>
      <point x="118.022" y="99.623"/>
    </contour>
  </outline>
</glyph>
<glyph name="zero" format="1">
  <advance width="682"/>
  <unicode hex="0030"/>
  <outline>
    <contour>
      <point x="431.1" y="485.567" type="line"/>
      <point x="373.823" y="496.174" type="line"/>
      <point x="157.65" y="280" type="line"/>
      <point x="188" y="176" type="line"/>
    </contour>
    <contour>
      <point x="307.51" y="-10.7402" type="curve"/>
      <point x="262.92" y="-8.01074" type="line" smooth="yes"/>
      <point x="142.083" y="6.78613"/>
      <point x="70" y="161.25"/>
      <point x="70" y="315.949" type="curve" smooth="yes"/>
      <point x="70" y="463.369"/>
      <point x="70.9102" y="679.04"/>
      <point x="282.029" y="697.239" type="curve"/>
      <point x="329.35" y="695.42" type="line" smooth="yes"/>
      <point x="447.629" y="695.42"/>
      <point x="542.29" y="515.953"/>
      <point x="542.29" y="366" type="curve" smooth="yes"/>
      <point x="542.29" y="218.579"/>
      <point x="503.16" y="-3.45996"/>
    </contour>
    <contour>
      <point x="302.96" y="71.1592" type="curve"/>
      <point x="442.189" y="87.54"/>
      <point x="454.93" y="244.06"/>
      <point x="454.93" y="366" type="curve" smooth="yes"/>
      <point x="454.93" y="449.438"/>
      <point x="416.71" y="602.6"/>
      <point x="307.51" y="608.97" type="curve"/>
      <point x="162.819" y="605.329"/>
      <point x="150.08" y="436.979"/>
      <point x="150.08" y="315.04" type="curve" smooth="yes"/>
      <point x="150.08" y="230.073"/>
      <point x="197.399" y="79.1963"/>
    </contour>
  </outline>
</glyph>
<glyph name="one" format="1">
  <advance width="559"/>
  <unicode hex="0031"/>
  <outline>
    <contour>
      <point x="296.274" y="595.567" type="line"/>
      <point x="238.998" y="606.174" type="line"/>
      <point x="70" y="437.175" type="line"/>
      <point x="137.175" y="370" type="line"/>
    </contour>
    <contour>
      <point x="298.175" y="414" type="line"/>
      <point x="298.175" y="653" type="line"/>
      <point x="346.175" y="686" type="line"/>
      <point x="404.175" y="418" type="line"/>
      <point x="404.175" y="0" type="line"/>
      <point x="298.175" y="0" type="line"/>
    </contour>
  </outline>
</glyph>
<glyph name="colon" format="1">
  <advance width="311"/>
  <unicode hex="003A"/>
  <outline>
    <contour>
      <point x="118" y="392" type="curve" smooth="yes"/>
      <point x="81" y="390"/>
      <point x="60" y="367"/>
      <point x="60" y="330" type="curve" smooth="yes"/>
      <point x="60" y="294"/>
      <point x="85.0098" y="269.824"/>
      <point x="122" y="272" type="curve" smooth="yes"/>
      <point x="156" y="274"/>
      <point x="174" y="302"/>
      <point x="174" y="336" type="curve" smooth="yes"/>
      <point x="174" y="366"/>
      <point x="148.022" y="393.623"/>
    </contour>
    <contour>
      <point x="88" y="98" type="curve" smooth="yes"/>
      <point x="51" y="96"/>
      <point x="30" y="73"/>
      <point x="30" y="36" type="curve" smooth="yes"/>
      <point x="30" y="0"/>
      <point x="55.0098" y="-24.1758"/>
      <point x="92" y="-22" type="curve" smooth="yes"/>
      <point x="126" y="-20"/>
      <point x="144" y="8"/>
      <point x="144" y="42" type="curve" smooth="yes"/>
      <point x="144" y="72"/>
      <point x="118.022" y="99.623"/>
    </contour>
  </outline>
</glyph>
<glyph name="semicolon" format="1">
  <advance width="206"/>
  <unicode hex="003B"/>
  <outline>
    <contour>
      <point x="118" y="392" type="curve" smooth="yes"/>
      <point x="81" y="390"/>
      <point x="60" y="367"/>
      <point x="60" y="330" type="curve" smooth="yes"/>
      <point x="60" y="294"/>
      <point x="85.0098" y="269.824"/>
      <point x="122" y="272" type="curve" smooth="yes"/>
      <point x="156" y="274"/>
      <point x="174" y="302"/>
      <point x="174" y="336" type="curve" smooth="yes"/>
      <point x="174" y="366"/>
      <point x="148.022" y="393.623"/>
    </contour>
    <contour>
      <point x="80" y="-60" type="curve"/>
      <point x="10" y="-60" type="line"/>
      <point x="26" y="-20"/>
      <point x="22" y="12"/>
      <point x="22" y="48" type="curve" smooth="yes"/>
      <point x="22" y="85"/>
      <point x="43" y="108"/>
      <point x="80" y="110" type="curve" smooth="yes"/>
      <point x="110.022" y="111.623"/>
      <point x="136" y="84"/>
      <point x="136" y="54" type="curve" smooth="yes"/>
      <point x="136" y="20"/>
      <point x="128" y="-16"/>
    </contour>
  </outline>
</glyph>
<glyph name="A" format="1">
  <advance width="581"/>
  <unicode hex="0041"/>
  <outline>
    <contour>
      <point x="53" y="0" type="line"/>
      <point x="231.5" y="724.4" type="line"/>
      <point x="337.5" y="736.4" type="line"/>
      <point x="528" y="0" type="line"/>
      <point x="427" y="-15" type="line"/>
      <point x="350" y="309" type="line"/>
      <point x="304" y="309" type="line"/>
      <point x="255" y="381" type="line"/>
      <point x="331" y="381" type="line"/>
      <point x="290.5" y="551" type="line"/>
      <point x="157" y="-15" type="line"/>
    </contour>
  </outline>
</glyph>
<glyph name="B" format="1">
  <advance width="589"/>
  <unicode hex="0042"/>
  <outline>
    <contour>
      <point x="430.452" y="356" type="curve"/>
      <point x="496.465" y="334.254"/>
      <point x="544" y="272.945"/>
      <point x="544" y="195" type="curve" smooth="yes"/>
      <point x="544" y="-17"/>
      <point x="399" y="0"/>
      <point x="265" y="0" type="curve" smooth="yes"/>
      <point x="195" y="0" type="line"/>
      <point x="195" y="85" type="line"/>
      <point x="227" y="85" type="line" smooth="yes"/>
      <point x="351" y="85"/>
      <point x="453" y="68"/>
      <point x="453" y="195" type="curve" smooth="yes"/>
      <point x="453" y="271"/>
      <point x="408" y="309"/>
      <point x="249" y="309" type="curve"/>
      <point x="201" y="380" type="line"/>
      <point x="352" y="381"/>
      <point x="415" y="420"/>
      <point x="415" y="524" type="curve" smooth="yes"/>
      <point x="415" y="620"/>
      <point x="351" y="651"/>
      <point x="227" y="651" type="curve" smooth="yes"/>
      <point x="195" y="651" type="line"/>
      <point x="195" y="0" type="line"/>
      <point x="100" y="0" type="line"/>
      <point x="100" y="736" type="line"/>
      <point x="195" y="736" type="line"/>
      <point x="265" y="736" type="line" smooth="yes"/>
      <point x="399" y="736"/>
      <point x="506" y="694"/>
      <point x="506" y="524" type="curve" smooth="yes"/>
      <point x="506" y="444.586"/>
      <point x="475.811" y="387.418"/>
    </contour>
  </outline>
</glyph>
<glyph name="C" format="1">
  <advance width="557"/>
  <unicode hex="0043"/>
  <outline>
    <contour>
      <point x="436" y="88" type="line"/>
      <point x="404" y="88" type="line" smooth="yes"/>
      <point x="290" y="88"/>
      <point x="190" y="216"/>
      <point x="190" y="358" type="curve" smooth="yes"/>
      <point x="190" y="502"/>
      <point x="278" y="653"/>
      <point x="429" y="654" type="curve"/>
      <point x="381" y="727" type="line"/>
      <point x="233.106" y="723.707"/>
      <point x="99" y="600"/>
      <point x="99" y="358" type="curve" smooth="yes"/>
      <point x="99" y="144"/>
      <point x="232" y="0"/>
      <point x="366" y="0" type="curve" smooth="yes"/>
      <point x="436" y="0" type="line"/>
    </contour>
  </outline>
</glyph>
<glyph name="D" format="1">
  <advance width="589"/>
  <unicode hex="0044"/>
  <outline>
    <contour>
      <point x="195" y="648" type="curve"/>
      <point x="227" y="648" type="line" smooth="yes"/>
      <point x="340.713" y="648"/>
      <point x="441" y="520"/>
      <point x="441" y="378" type="curve" smooth="yes"/>
      <point x="441" y="234"/>
      <point x="353" y="83"/>
      <point x="202" y="82" type="curve"/>
      <point x="250" y="9" type="line"/>
      <point x="397.893" y="12.2933"/>
      <point x="532" y="136"/>
      <point x="532" y="378" type="curve" smooth="yes"/>
      <point x="532" y="592"/>
      <point x="399" y="736"/>
      <point x="265" y="736" type="curve" smooth="yes"/>
      <point x="195" y="736" type="line"/>
      <point x="100" y="736" type="line"/>
      <point x="100" y="0" type="line"/>
      <point x="196" y="0" type="line"/>
      <point x="188.382" y="224.711"/>
      <point x="196.026" y="430.267"/>
    </contour>
  </outline>
</glyph>
<glyph name="E" format="1">
  <advance width="475"/>
  <unicode hex="0045"/>
  <outline>
    <contour>
      <point x="465" y="80" type="line"/>
      <point x="465" y="0" type="line"/>
      <point x="100" y="0" type="line"/>
      <point x="100" y="736" type="line"/>
      <point x="449" y="736" type="line"/>
      <point x="449" y="651" type="line"/>
      <point x="192" y="651" type="line"/>
      <point x="192" y="80" type="line"/>
    </contour>
    <contour>
      <point x="200" y="424" type="line"/>
      <point x="249" y="352" type="line"/>
      <point x="368" y="352" type="line"/>
      <point x="368" y="424" type="line"/>
    </contour>
  </outline>
</glyph>
<glyph name="F" format="1">
  <advance width="459"/>
  <unicode hex="0046"/>
  <outline>
    <contour>
      <point x="192" y="0" type="line"/>
      <point x="100" y="0" type="line"/>
      <point x="100" y="736" type="line"/>
      <point x="449" y="736" type="line"/>
      <point x="449" y="651" type="line"/>
      <point x="192" y="651" type="line"/>
    </contour>
    <contour>
      <point x="200" y="381" type="line"/>
      <point x="249" y="309" type="line"/>
      <point x="368" y="309" type="line"/>
      <point x="368" y="381" type="line"/>
    </contour>
  </outline>
</glyph>
<glyph name="H" format="1">
  <advance width="589"/>
  <unicode hex="0048"/>
  <outline>
    <contour>
      <point x="192" y="536" type="line"/>
      <point x="192" y="80" type="line" smooth="yes"/>
      <point x="192" y="56.5661"/>
      <point x="192" y="-6.61353"/>
      <point x="192" y="0" type="curve"/>
      <point x="100" y="0" type="line"/>
      <point x="98" y="476" type="line"/>
      <point x="98" y="715" type="line"/>
      <point x="146" y="748" type="line"/>
    </contour>
    <contour>
      <point x="530" y="0" type="line"/>
      <point x="438" y="0" type="line"/>
      <point x="438" y="309" type="line"/>
      <point x="249" y="309" type="line"/>
      <point x="200" y="381" type="line"/>
      <point x="438" y="381" type="line"/>
      <point x="438" y="736" type="line"/>
      <point x="431.53" y="736"/>
      <point x="503.023" y="736"/>
      <point x="530" y="736" type="curve"/>
    </contour>
  </outline>
</glyph>
<glyph name="I" format="1">
  <advance width="425"/>
  <unicode hex="0049"/>
  <outline>
    <contour>
      <point x="202" y="878" type="curve" smooth="yes"/>
      <point x="165" y="876"/>
      <point x="144" y="853"/>
      <point x="144" y="816" type="curve" smooth="yes"/>
      <point x="144" y="780"/>
      <point x="169.01" y="755.824"/>
      <point x="206" y="758" type="curve" smooth="yes"/>
      <point x="240" y="760"/>
      <point x="258" y="788"/>
      <point x="258" y="822" type="curve" smooth="yes"/>
      <point x="258" y="852"/>
      <point x="232.022" y="879.623"/>
    </contour>
    <contour>
      <point x="160" y="414" type="line"/>
      <point x="160" y="653" type="line"/>
      <point x="208" y="686" type="line"/>
      <point x="266" y="418" type="line"/>
      <point x="266" y="0" type="line"/>
      <point x="160" y="0" type="line"/>
    </contour>
  </outline>
</glyph>
<glyph name="J" format="1">
  <advance width="557"/>
  <unicode hex="004A"/>
  <outline>
    <contour>
      <point x="98" y="31" type="curve" smooth="yes"/>
      <point x="129.418" y="-14.3584"/>
      <point x="189.586" y="-17"/>
      <point x="269" y="-17" type="curve" smooth="yes"/>
      <point x="439" y="-17"/>
      <point x="462" y="90"/>
      <point x="462" y="224" type="curve" smooth="yes"/>
      <point x="462" y="418" type="line"/>
      <point x="404" y="686" type="line"/>
      <point x="346" y="653" type="line"/>
      <point x="346" y="414" type="line"/>
      <point x="346" y="257" type="line" smooth="yes"/>
      <point x="346" y="133"/>
      <point x="344" y="69"/>
      <point x="248" y="69" type="curve" smooth="yes"/>
      <point x="144" y="69"/>
      <point x="150" y="116"/>
      <point x="149" y="267" type="curve"/>
      <point x="63" y="219" type="line"/>
      <point x="58" y="151"/>
      <point x="56.5957" y="90.7764"/>
    </contour>
    <contour>
      <point x="398" y="878" type="curve" smooth="yes"/>
      <point x="361" y="876"/>
      <point x="340" y="853"/>
      <point x="340" y="816" type="curve" smooth="yes"/>
      <point x="340" y="780"/>
      <point x="365.01" y="755.824"/>
      <point x="402" y="758" type="curve" smooth="yes"/>
      <point x="436" y="760"/>
      <point x="454" y="788"/>
      <point x="454" y="822" type="curve" smooth="yes"/>
      <point x="454" y="852"/>
      <point x="428.022" y="879.623"/>
    </contour>
  </outline>
</glyph>
<glyph name="K" format="1">
  <advance width="571"/>
  <unicode hex="004B"/>
  <outline>
    <contour>
      <point x="277" y="376" type="line"/>
      <point x="531" y="0" type="line"/>
      <point x="424" y="-15" type="line"/>
      <point x="157.305" y="382.139" type="line"/>
      <point x="418" y="688" type="line"/>
      <point x="461.07" y="588.909" type="line"/>
    </contour>
    <contour>
      <point x="60" y="0" type="line"/>
      <point x="155" y="0" type="line"/>
      <point x="155" y="523" type="line"/>
      <point x="108" y="744" type="line"/>
      <point x="60" y="711" type="line"/>
      <point x="60" y="472" type="line"/>
    </contour>
  </outline>
</glyph>
<glyph name="L" format="1">
  <advance width="531"/>
  <unicode hex="004C"/>
  <outline>
    <contour>
      <point x="199" y="48" type="line"/>
      <point x="232" y="0" type="line"/>
      <point x="471" y="0" type="line"/>
      <point x="471" y="95" type="line"/>
    </contour>
    <contour>
      <point x="195" y="736" type="line"/>
      <point x="100" y="736" type="line"/>
      <point x="100" y="0" type="line"/>
      <point x="195" y="0" type="line"/>
    </contour>
  </outline>
</glyph>
<glyph name="M" format="1">
  <advance width="926"/>
  <unicode hex="004D"/>
  <outline>
    <contour>
      <point x="117" y="731.193" type="line"/>
      <point x="107" y="-6.80664" type="line"/>
      <point x="218" y="-6.80664" type="line"/>
      <point x="231.552" y="605.193" type="line"/>
      <point x="447.518" y="288.193" type="line"/>
      <point x="661.519" y="583.595" type="line"/>
      <point x="675" y="1.19336" type="line"/>
      <point x="786" y="1.19336" type="line"/>
      <point x="776" y="739.193" type="line"/>
      <point x="706.854" y="748" type="line"/>
      <point x="654.55" y="755.332" type="line"/>
      <point x="450.308" y="451.193" type="line"/>
      <point x="243.854" y="759.193" type="line"/>
      <point x="197.854" y="751.062" type="line"/>
    </contour>
  </outline>
</glyph>
<glyph name="N" format="1">
  <advance width="749"/>
  <unicode hex="004E"/>
  <outline>
    <contour>
      <point x="184.552" y="572.193" type="line"/>
      <point x="371" y="294" type="line"/>
      <point x="569" y="0" type="line"/>
      <point x="606" y="-5.36035"/>
      <point x="672" y="1.72363"/>
      <point x="709" y="1.19336" type="curve"/>
      <point x="701" y="739.193" type="line"/>
      <point x="639.854" y="748" type="line"/>
      <point x="587.55" y="755.332" type="line"/>
      <point x="588" y="148" type="line"/>
      <point x="387.308" y="460.193" type="line"/>
      <point x="196.854" y="759.193" type="line"/>
      <point x="150.854" y="751.062" type="line"/>
      <point x="70" y="731.193" type="line"/>
      <point x="70" y="0.193359" type="line"/>
      <point x="181" y="0.193359" type="line"/>
    </contour>
  </outline>
</glyph>
<glyph name="O" format="1">
  <advance width="639"/>
  <unicode hex="004F"/>
  <outline>
    <contour>
      <point x="331" y="-33" type="curve"/>
      <point x="282" y="-30" type="line" smooth="yes"/>
      <point x="149.212" y="-13.7402"/>
      <point x="70" y="156"/>
      <point x="70" y="326" type="curve" smooth="yes"/>
      <point x="70" y="488"/>
      <point x="71" y="725"/>
      <point x="303" y="745" type="curve"/>
      <point x="355" y="743" type="line" smooth="yes"/>
      <point x="484.978" y="743"/>
      <point x="589" y="545.784"/>
      <point x="589" y="381" type="curve" smooth="yes"/>
      <point x="589" y="219"/>
      <point x="546" y="-25"/>
    </contour>
    <contour>
      <point x="326" y="57" type="curve"/>
      <point x="479" y="75"/>
      <point x="493" y="247"/>
      <point x="493" y="381" type="curve" smooth="yes"/>
      <point x="493" y="472.69"/>
      <point x="451" y="641"/>
      <point x="331" y="648" type="curve"/>
      <point x="172" y="644"/>
      <point x="158" y="459"/>
      <point x="158" y="325" type="curve" smooth="yes"/>
      <point x="158" y="231.631"/>
      <point x="210" y="65.832"/>
    </contour>
  </outline>
</glyph>
<glyph name="P" format="1">
  <advance width="531"/>
  <unicode hex="0050"/>
  <outline>
    <contour>
      <point x="346" y="333" type="line"/>
      <point x="449" y="342"/>
      <point x="511" y="362"/>
      <point x="511" y="524" type="curve" smooth="yes"/>
      <point x="511" y="694"/>
      <point x="399" y="736"/>
      <point x="265" y="736" type="curve" smooth="yes"/>
      <point x="195" y="736" type="line"/>
      <point x="100" y="736" type="line"/>
      <point x="100" y="0" type="line"/>
      <point x="195" y="0" type="line"/>
      <point x="195" y="651" type="line"/>
      <point x="227" y="651" type="line" smooth="yes"/>
      <point x="351" y="651"/>
      <point x="415" y="620"/>
      <point x="415" y="524" type="curve" smooth="yes"/>
      <point x="415" y="390"/>
      <point x="355" y="408"/>
      <point x="199" y="382" type="curve"/>
      <point x="232" y="334" type="line"/>
    </contour>
  </outline>
</glyph>
<glyph name="Q" format="1">
  <advance width="571"/>
  <unicode hex="0051"/>
  <outline>
    <contour>
      <point x="488.27" y="0" type="line"/>
      <point x="543" y="-81" type="line"/>
      <point x="436" y="-96" type="line"/>
      <point x="373.255" y="-2" type="line"/>
    </contour>
    <contour>
      <point x="373.255" y="-2" type="curve"/>
      <point x="340.724" y="-24.2949"/>
      <point x="311.652" y="-31.1897"/>
      <point x="263" y="-33" type="curve"/>
      <point x="214" y="-30" type="line" smooth="yes"/>
      <point x="81.2119" y="-13.7402"/>
      <point x="2" y="156"/>
      <point x="2" y="326" type="curve" smooth="yes"/>
      <point x="2" y="488"/>
      <point x="3" y="725"/>
      <point x="235" y="745" type="curve"/>
      <point x="287" y="743" type="line" smooth="yes"/>
      <point x="416.978" y="743"/>
      <point x="521" y="545.784"/>
      <point x="521" y="381" type="curve" smooth="yes"/>
      <point x="521" y="276.303"/>
      <point x="502" y="44"/>
    </contour>
    <contour>
      <point x="258" y="57" type="curve"/>
      <point x="411" y="75"/>
      <point x="425" y="247"/>
      <point x="425" y="381" type="curve" smooth="yes"/>
      <point x="425" y="472.69"/>
      <point x="383" y="641"/>
      <point x="263" y="648" type="curve"/>
      <point x="104" y="644"/>
      <point x="90" y="459"/>
      <point x="90" y="325" type="curve" smooth="yes"/>
      <point x="90" y="231.631"/>
      <point x="142" y="65.832"/>
    </contour>
  </outline>
</glyph>
<glyph name="R" format="1">
  <advance width="571"/>
  <unicode hex="0052"/>
  <outline>
    <contour>
      <point x="531" y="0" type="line"/>
      <point x="424" y="-15" type="line"/>
      <point x="159" y="382" type="line"/>
      <point x="315" y="408"/>
      <point x="375" y="390"/>
      <point x="375" y="524" type="curve" smooth="yes"/>
      <point x="375" y="620"/>
      <point x="311" y="651"/>
      <point x="187" y="651" type="curve" smooth="yes"/>
      <point x="155" y="651" type="line"/>
      <point x="155" y="0" type="line"/>
      <point x="60" y="0" type="line"/>
      <point x="60" y="736" type="line"/>
      <point x="155" y="736" type="line" smooth="yes"/>
      <point x="225" y="736" type="line" smooth="yes"/>
      <point x="359" y="736"/>
      <point x="471" y="694"/>
      <point x="471" y="524" type="curve" smooth="yes"/>
      <point x="471" y="362"/>
      <point x="409" y="342"/>
      <point x="306" y="333" type="curve"/>
    </contour>
  </outline>
</glyph>
<glyph name="S" format="1">
  <advance width="388"/>
  <unicode hex="0053"/>
  <outline>
    <contour>
      <point x="216.076" y="312" type="curve" smooth="yes"/>
      <point x="151.837" y="354.826"/>
      <point x="32.0762" y="400"/>
      <point x="30.0762" y="518" type="curve" smooth="yes"/>
      <point x="28.6172" y="604.081"/>
      <point x="48.0762" y="654"/>
      <point x="98.0762" y="688" type="curve" smooth="yes"/>
      <point x="158.888" y="729.352"/>
      <point x="232.076" y="719.452"/>
      <point x="262.076" y="713.452" type="curve"/>
      <point x="276.076" y="646" type="line"/>
      <point x="180.076" y="643.452"/>
      <point x="131.076" y="602"/>
      <point x="132.076" y="534" type="curve" smooth="yes"/>
      <point x="133.297" y="450.985"/>
      <point x="229.186" y="426.984"/>
      <point x="278.076" y="393" type="curve" smooth="yes"/>
      <point x="360.076" y="336"/>
      <point x="378.076" y="264"/>
      <point x="380.576" y="202" type="curve" smooth="yes"/>
      <point x="384.045" y="115.977"/>
      <point x="363.317" y="64.8828"/>
      <point x="312.576" y="32" type="curve" smooth="yes"/>
      <point x="223.076" y="-26"/>
      <point x="92.5762" y="10"/>
      <point x="62.5762" y="16" type="curve"/>
      <point x="48.5762" y="74" type="line"/>
      <point x="59.1475" y="74.2803"/>
      <point x="159.319" y="70.7178"/>
      <point x="164.576" y="76.2402" type="curve"/>
      <point x="258.575" y="78.0557"/>
      <point x="278.576" y="135.481"/>
      <point x="278.576" y="196" type="curve" smooth="yes"/>
      <point x="278.576" y="248"/>
      <point x="258.076" y="284"/>
    </contour>
  </outline>
</glyph>
<glyph name="T" format="1">
  <advance width="504"/>
  <unicode hex="0054"/>
  <outline>
    <contour>
      <point x="431" y="726" type="line"/>
      <point x="20" y="726" type="line"/>
      <point x="20" y="640" type="line"/>
      <point x="431" y="640.09" type="line"/>
    </contour>
    <contour>
      <point x="180" y="414" type="line"/>
      <point x="180" y="605" type="line"/>
      <point x="228" y="638" type="line"/>
      <point x="286" y="418" type="line"/>
      <point x="286" y="0" type="line"/>
      <point x="180" y="0" type="line"/>
    </contour>
  </outline>
</glyph>
<glyph name="U" format="1">
  <advance width="531"/>
  <unicode hex="0055"/>
  <outline>
    <contour>
      <point x="425" y="381" type="line"/>
      <point x="425" y="248"/>
      <point x="411" y="75"/>
      <point x="258" y="57" type="curve"/>
      <point x="142" y="65.832"/>
      <point x="90" y="231.631"/>
      <point x="90" y="325" type="curve"/>
      <point x="90" y="727" type="line"/>
      <point x="2" y="727" type="line"/>
      <point x="2" y="326" type="line"/>
      <point x="2" y="156"/>
      <point x="80.716" y="-21.8398"/>
      <point x="214" y="-30" type="curve" smooth="yes"/>
      <point x="263" y="-33" type="line"/>
      <point x="478" y="-25"/>
      <point x="521" y="219"/>
      <point x="521" y="381" type="curve"/>
      <point x="520" y="726" type="line"/>
      <point x="425" y="726" type="line"/>
    </contour>
  </outline>
</glyph>
<glyph name="V" format="1">
  <advance width="581"/>
  <unicode hex="0056"/>
  <outline>
    <contour>
      <point x="232" y="426" type="line"/>
      <point x="155" y="750" type="line"/>
      <point x="51" y="735" type="line"/>
      <point x="241.5" y="-1.40039" type="line"/>
      <point x="341.5" y="-1.40039" type="line"/>
      <point x="532" y="735" type="line"/>
      <point x="425" y="750" type="line"/>
      <point x="291.5" y="184" type="line"/>
    </contour>
  </outline>
</glyph>
<glyph name="W" format="1">
  <advance width="983"/>
  <unicode hex="0057"/>
  <outline>
    <contour>
      <point x="806" y="709.4" type="line"/>
      <point x="913" y="694.4" type="line"/>
      <point x="734.399" y="4" type="line"/>
      <point x="706.646" y="-1.86914" type="line"/>
      <point x="660.646" y="-10" type="line"/>
      <point x="454.192" y="298" type="line"/>
      <point x="249.95" y="-6.13867" type="line"/>
      <point x="197.646" y="1.19336" type="line"/>
      <point x="128.5" y="10" type="line"/>
      <point x="128.5" y="748" type="line"/>
      <point x="239.5" y="726" type="line"/>
      <point x="242.981" y="165.599" type="line"/>
      <point x="456.982" y="461" type="line"/>
      <point x="658.948" y="158" type="line"/>
    </contour>
  </outline>
</glyph>
<glyph name="X" format="1">
  <advance width="765"/>
  <unicode hex="0058"/>
  <outline>
    <contour>
      <point x="516.547" y="263" type="line"/>
      <point x="378" y="298" type="line"/>
      <point x="584" y="-10" type="line"/>
      <point x="691" y="5" type="line"/>
    </contour>
    <contour>
      <point x="445.646" y="391" type="line"/>
      <point x="621.07" y="593.909" type="line"/>
      <point x="578" y="693" type="line"/>
      <point x="380.337" y="461" type="line"/>
      <point x="179.305" y="696.861" type="line"/>
      <point x="116" y="622" type="line"/>
      <point x="320.305" y="384.861" type="line"/>
      <point x="66.3047" y="8.86133" type="line"/>
      <point x="173.305" y="-6.13867" type="line"/>
      <point x="355.386" y="265" type="line"/>
    </contour>
  </outline>
</glyph>
<glyph name="Y" format="1">
  <advance width="605"/>
  <unicode hex="0059"/>
  <outline>
    <contour>
      <point x="355" y="446" type="line"/>
      <point x="612.161" y="726" type="line"/>
      <point x="504" y="755" type="line"/>
      <point x="310.032" y="544" type="line"/>
      <point x="115" y="761.861" type="line"/>
      <point x="37.7002" y="693" type="line"/>
      <point x="252" y="449.861" type="line"/>
      <point x="250.695" y="0" type="line"/>
      <point x="358" y="0" type="line"/>
    </contour>
  </outline>
</glyph>
<glyph name="Z" format="1">
  <advance width="571"/>
  <unicode hex="005A"/>
  <outline>
    <contour>
      <point x="91" y="-7" type="line"/>
      <point x="454" y="-7" type="line"/>
      <point x="459" y="84" type="line"/>
      <point x="153" y="84" type="line"/>
      <point x="356" y="390" type="line"/>
      <point x="524" y="649" type="line"/>
      <point x="417" y="664" type="line"/>
      <point x="52" y="663" type="line"/>
      <point x="50" y="572" type="line"/>
      <point x="358.784" y="572" type="line"/>
      <point x="249" y="405" type="line"/>
      <point x="-16" y="8" type="line"/>
    </contour>
  </outline>
</glyph>
<glyph name="g" format="1">
  <advance width="584"/>
  <unicode hex="0067"/>
  <outline>
    <contour>
      <point x="445" y="320" type="line"/>
      <point x="444" y="363"/>
      <point x="394" y="423"/>
      <point x="309" y="422" type="curve"/>
      <point x="222" y="423"/>
      <point x="181" y="365"/>
      <point x="181" y="241" type="curve" smooth="yes"/>
      <point x="181" y="109"/>
      <point x="270" y="110"/>
      <point x="435" y="98" type="curve"/>
      <point x="403" y="51" type="line"/>
      <point x="281" y="51" type="line"/>
      <point x="177" y="51"/>
      <point x="100" y="82"/>
      <point x="100" y="244" type="curve" smooth="yes"/>
      <point x="100" y="396"/>
      <point x="159" y="500"/>
      <point x="309" y="500" type="curve" smooth="yes"/>
      <point x="370" y="500"/>
      <point x="425" y="472"/>
      <point x="444" y="434" type="curve"/>
      <point x="444" y="496" type="line"/>
      <point x="525" y="496" type="line"/>
      <point x="525" y="28" type="line"/>
      <point x="524" y="-131"/>
      <point x="445" y="-206"/>
      <point x="310" y="-206" type="curve" smooth="yes"/>
      <point x="220" y="-206"/>
      <point x="121" y="-166"/>
      <point x="121" y="-22" type="curve"/>
      <point x="202" y="-22" type="line"/>
      <point x="202" y="-115"/>
      <point x="278" y="-126"/>
      <point x="310" y="-126" type="curve" smooth="yes"/>
      <point x="414" y="-126"/>
      <point x="444" y="-59"/>
      <point x="444" y="17" type="curve" smooth="yes"/>
    </contour>
  </outline>
</glyph>
